<svg xmlns="http://www.w3.org/2000/svg" viewBox="0 0 217.66 652.52"><defs><style>.cls-1{fill:#bd946d;}.cls-2{fill:#d8a87b;}</style></defs><g id="Layer_2" data-name="Layer 2"><g id="Layer_1-2" data-name="Layer 1"><path class="cls-1" d="M0,5c26.81-8.47,57.77-6,85.18,5.9.86.36,1.74.7,2.59,1.08l2.51,1.26,5,2.54c3.33,1.76,6.5,3.78,9.78,5.69,3.12,2.13,6.28,4.25,9.3,6.56l4.44,3.58,2.23,1.81c.73.62,1.41,1.28,2.12,1.92,2.79,2.62,5.73,5.13,8.26,8l3.92,4.26c1.26,1.46,2.45,3,3.67,4.49s2.48,3,3.59,4.59L146,61.51a115.68,115.68,0,0,1,6.16,10c1,1.68,1.83,3.48,2.72,5.25l2.59,5.33c1.51,3.66,3.05,7.33,4.38,11.1a132.41,132.41,0,0,1,5.6,23.41,129.33,129.33,0,0,1-2.06,48.47,143.35,143.35,0,0,1-18.86,44.28c-.52.84-1,1.72-1.57,2.53l-1.71,2.42-3.45,4.82c-2.4,3.42-4.37,5.82-6.5,8.63L120.63,244l-12.56,16.17q-6.28,8-12.35,16.11c-8.12,10.72-16,21.46-23.19,32.27-1.81,2.7-3.58,5.41-5.25,8.14s-3.31,5.43-5,8.16c-3.07,5.48-6.1,10.94-8.63,16.47-5,11.09-8.66,22.27-10.12,33.78a106.25,106.25,0,0,0,1.75,35.64c.56,3.05,1.4,6.1,2.2,9.16.38,1.54.92,3.06,1.37,4.59s.94,3.17,1.39,4.43a74.71,74.71,0,0,0,7.8,16.18c6.57,10.7,15.41,20.77,25,30.29a342.13,342.13,0,0,0,31.25,27,191.13,191.13,0,0,1-38.74-17c-12.38-7.15-24.25-15.67-34.76-26.69a95.39,95.39,0,0,1-14-18.88c-1.07-1.83-1.83-3.4-2.68-5.08s-1.7-3.3-2.46-5c-1.53-3.43-3.1-6.85-4.41-10.44s-2.58-7.22-3.73-10.91c-1-3.76-2-7.52-2.7-11.4a115.19,115.19,0,0,1-2.27-23.74,138.75,138.75,0,0,1,2.33-23.84,165.17,165.17,0,0,1,6.3-22.62,234.94,234.94,0,0,1,19.4-40.53C44,273.54,52,261.73,60.21,250.2c4.12-5.75,8.3-11.4,12.5-17s8.47-11.11,12.73-16.59l12.88-16.32c2.1-2.64,4.54-5.56,6.11-7.78l2.64-3.55a36.49,36.49,0,0,0,2.54-3.59,111.59,111.59,0,0,0,14.85-30.92,100.93,100.93,0,0,0,4-33.62A104.77,104.77,0,0,0,126,103.7c-.65-2.84-1.49-5.65-2.26-8.5L122.29,91a44.55,44.55,0,0,0-1.57-4.17l-1.79-4.1c-.32-.68-.56-1.39-.9-2.06l-1-2-2-4c-.68-1.36-1.53-2.61-2.29-3.93s-1.53-2.63-2.35-3.92L107.71,63c-1.68-2.58-3.63-4.95-5.52-7.41A130.9,130.9,0,0,0,74.68,30,138.2,138.2,0,0,0,40,12.46,146.62,146.62,0,0,0,0,5Z"/><path class="cls-2" d="M167,264.53a143.76,143.76,0,0,0-12.67,24,87.76,87.76,0,0,0-3.79,12.16c-.49,2-.85,4.06-1.24,6.06s-.6,4-.71,6.07-.27,4-.37,6,0,4,.11,6,.2,4,.45,6,.47,4,.79,5.93c.66,3.93,1.51,7.85,2.48,11.73.52,1.95,1.13,3.89,1.68,5.81l1.91,5.78a218.48,218.48,0,0,0,9.63,22.73c.94,1.87,1.77,3.75,2.79,5.6l2.93,5.56c1,1.85,2.08,3.68,3.11,5.52s2,3.69,3.16,5.51l3.26,5.47,3.41,5.44,1.7,2.71,1.86,3.1L191.3,428c1.28,2.12,2.38,4.37,3.57,6.55s2.38,4.36,3.42,6.65l3.18,6.81c1.07,2.27,1.95,4.64,2.93,7,2,4.63,3.49,9.5,5.17,14.27,1.37,4.91,2.89,9.76,3.93,14.79s2,10.07,2.76,15.15l.82,7.7c.31,2.55.32,5.16.46,7.74a155,155,0,0,1-1.89,31,142.1,142.1,0,0,1-8.43,29.82,135.51,135.51,0,0,1-34.36,49.44,127.86,127.86,0,0,1-23.81,17,107.53,107.53,0,0,1-26.52,10.56,233.43,233.43,0,0,0,18.61-20.16A171.83,171.83,0,0,0,156,610.89,147.31,147.31,0,0,0,173.7,565c6.48-31.4,1.4-63.23-10.7-93.39a245.82,245.82,0,0,0-10.29-22.4l-6.19-11.54-3.43-6.41-3.21-6.56a227.31,227.31,0,0,1-11.11-27.32,180,180,0,0,1-7.19-29.24c-.34-2.53-.71-5-1-7.58s-.41-5.11-.53-7.68-.19-5.14-.13-7.73c0-1.29.07-2.59.13-3.88s.13-2.58.27-3.88a99.14,99.14,0,0,1,7.14-30.22A83.55,83.55,0,0,1,144,281.75,86,86,0,0,1,167,264.53Z"/></g></g></svg>